<?xml version="1.0" encoding="UTF-8" standalone="no"?>
<!DOCTYPE svg PUBLIC "-//W3C//DTD SVG 1.1//EN"
 "http://www.w3.org/Graphics/SVG/1.1/DTD/svg11.dtd">
<!-- Generated by graphviz version 12.2.1 (20241206.2353)
 -->
<!-- Title: imported_1750090532.8181162 Pages: 1 -->
<svg width="2410pt" height="304pt"
 viewBox="0.00 0.00 2410.00 304.00" xmlns="http://www.w3.org/2000/svg" xmlns:xlink="http://www.w3.org/1999/xlink">
<g id="graph0" class="graph" transform="scale(1 1) rotate(0) translate(4 300)">
<title>imported_1750090532.8181162</title>
<polygon fill="white" stroke="none" points="-4,4 -4,-300 2406,-300 2406,4 -4,4"/>
<!-- 10999049744 -->
<g id="node1" class="node">
<title>10999049744</title>
<polygon fill="none" stroke="black" points="1404,-168 1350,-168 1350,-132 1404,-132 1404,-168"/>
<text text-anchor="middle" x="1377" y="-145.72" font-family="Times,serif" font-size="12.00">9</text>
</g>
<!-- 10998941776 -->
<g id="node24" class="node">
<title>10998941776</title>
<ellipse fill="none" stroke="black" cx="1467" cy="-150" rx="27" ry="27"/>
</g>
<!-- 10999049744&#45;&gt;10998941776 -->
<g id="edge30" class="edge">
<title>10999049744&#45;&gt;10998941776</title>
<path fill="none" stroke="black" d="M1404.4,-150C1411.89,-150 1420.18,-150 1428.2,-150"/>
<polygon fill="black" stroke="black" points="1428.1,-153.5 1438.1,-150 1428.1,-146.5 1428.1,-153.5"/>
</g>
<!-- 10999054096 -->
<g id="node2" class="node">
<title>10999054096</title>
<polygon fill="black" stroke="black" points="324,-278 270,-278 270,-242 324,-242 324,-278"/>
</g>
<!-- 10999072464 -->
<g id="node33" class="node">
<title>10999072464</title>
<ellipse fill="none" stroke="black" cx="387" cy="-233" rx="27" ry="27"/>
</g>
<!-- 10999054096&#45;&gt;10999072464 -->
<g id="edge14" class="edge">
<title>10999054096&#45;&gt;10999072464</title>
<path fill="none" stroke="black" d="M324.4,-251.9C332.43,-249.44 341.39,-246.69 349.94,-244.06"/>
<polygon fill="black" stroke="black" points="350.84,-247.45 359.38,-241.17 348.79,-240.76 350.84,-247.45"/>
</g>
<!-- 10999047696 -->
<g id="node3" class="node">
<title>10999047696</title>
<polygon fill="black" stroke="black" points="1764,-259 1710,-259 1710,-223 1764,-223 1764,-259"/>
</g>
<!-- 10999083664 -->
<g id="node34" class="node">
<title>10999083664</title>
<ellipse fill="none" stroke="black" cx="1827" cy="-241" rx="27" ry="27"/>
</g>
<!-- 10999047696&#45;&gt;10999083664 -->
<g id="edge18" class="edge">
<title>10999047696&#45;&gt;10999083664</title>
<path fill="none" stroke="black" d="M1764.4,-241C1771.89,-241 1780.18,-241 1788.2,-241"/>
<polygon fill="black" stroke="black" points="1788.1,-244.5 1798.1,-241 1788.1,-237.5 1788.1,-244.5"/>
</g>
<!-- 10999047440 -->
<g id="node4" class="node">
<title>10999047440</title>
<polygon fill="black" stroke="black" points="504,-251 450,-251 450,-215 504,-215 504,-251"/>
</g>
<!-- 10998944912 -->
<g id="node28" class="node">
<title>10998944912</title>
<ellipse fill="none" stroke="black" cx="567" cy="-269" rx="27" ry="27"/>
</g>
<!-- 10999047440&#45;&gt;10998944912 -->
<g id="edge16" class="edge">
<title>10999047440&#45;&gt;10998944912</title>
<path fill="none" stroke="black" d="M504.4,-243.8C512.75,-247.22 522.12,-251.05 530.97,-254.67"/>
<polygon fill="black" stroke="black" points="529.44,-257.83 540.02,-258.37 532.09,-251.35 529.44,-257.83"/>
</g>
<!-- 10999073040 -->
<g id="node35" class="node">
<title>10999073040</title>
<ellipse fill="none" stroke="black" cx="567" cy="-197" rx="27" ry="27"/>
</g>
<!-- 10999047440&#45;&gt;10999073040 -->
<g id="edge17" class="edge">
<title>10999047440&#45;&gt;10999073040</title>
<path fill="none" stroke="black" d="M504.4,-222.2C512.75,-218.78 522.12,-214.95 530.97,-211.33"/>
<polygon fill="black" stroke="black" points="532.09,-214.65 540.02,-207.63 529.44,-208.17 532.09,-214.65"/>
</g>
<!-- 10999047952 -->
<g id="node5" class="node">
<title>10999047952</title>
<polygon fill="none" stroke="black" points="684,-215 630,-215 630,-179 684,-179 684,-215"/>
<text text-anchor="middle" x="657" y="-192.72" font-family="Times,serif" font-size="12.00">1</text>
</g>
<!-- 10999073424 -->
<g id="node37" class="node">
<title>10999073424</title>
<ellipse fill="none" stroke="black" cx="747" cy="-197" rx="27" ry="27"/>
</g>
<!-- 10999047952&#45;&gt;10999073424 -->
<g id="edge19" class="edge">
<title>10999047952&#45;&gt;10999073424</title>
<path fill="none" stroke="black" d="M684.4,-197C691.89,-197 700.18,-197 708.2,-197"/>
<polygon fill="black" stroke="black" points="708.1,-200.5 718.1,-197 708.1,-193.5 708.1,-200.5"/>
</g>
<!-- 10999048592 -->
<g id="node6" class="node">
<title>10999048592</title>
<polygon fill="black" stroke="black" points="1404,-239 1350,-239 1350,-203 1404,-203 1404,-239"/>
</g>
<!-- 10999073168 -->
<g id="node36" class="node">
<title>10999073168</title>
<ellipse fill="none" stroke="black" cx="1647" cy="-214" rx="27" ry="27"/>
</g>
<!-- 10999048592&#45;&gt;10999073168 -->
<g id="edge22" class="edge">
<title>10999048592&#45;&gt;10999073168</title>
<path fill="none" stroke="black" d="M1404.18,-220.32C1451.92,-219.07 1553.23,-216.42 1608.36,-214.98"/>
<polygon fill="black" stroke="black" points="1608.29,-218.49 1618.2,-214.73 1608.11,-211.49 1608.29,-218.49"/>
</g>
<!-- 10999048848 -->
<g id="node7" class="node">
<title>10999048848</title>
<polygon fill="black" stroke="black" points="1044,-183 990,-183 990,-147 1044,-147 1044,-183"/>
</g>
<!-- 10998951120 -->
<g id="node23" class="node">
<title>10998951120</title>
<ellipse fill="none" stroke="black" cx="1107" cy="-165" rx="27" ry="27"/>
</g>
<!-- 10999048848&#45;&gt;10998951120 -->
<g id="edge23" class="edge">
<title>10999048848&#45;&gt;10998951120</title>
<path fill="none" stroke="black" d="M1044.4,-165C1051.89,-165 1060.18,-165 1068.2,-165"/>
<polygon fill="black" stroke="black" points="1068.1,-168.5 1078.1,-165 1068.1,-161.5 1068.1,-168.5"/>
</g>
<!-- 10998944336 -->
<g id="node26" class="node">
<title>10998944336</title>
<ellipse fill="none" stroke="black" cx="1107" cy="-72" rx="27" ry="27"/>
</g>
<!-- 10999048848&#45;&gt;10998944336 -->
<g id="edge24" class="edge">
<title>10999048848&#45;&gt;10998944336</title>
<path fill="none" stroke="black" d="M1035.39,-146.63C1048.15,-133.14 1065.7,-114.59 1080.11,-99.36"/>
<polygon fill="black" stroke="black" points="1082.37,-102.06 1086.7,-92.4 1077.29,-97.25 1082.37,-102.06"/>
</g>
<!-- 10999047184 -->
<g id="node8" class="node">
<title>10999047184</title>
<polygon fill="black" stroke="black" points="1584,-168 1530,-168 1530,-132 1584,-132 1584,-168"/>
</g>
<!-- 10999047184&#45;&gt;10999073168 -->
<g id="edge25" class="edge">
<title>10999047184&#45;&gt;10999073168</title>
<path fill="none" stroke="black" d="M1582.98,-168.17C1593.02,-175.47 1604.69,-183.96 1615.24,-191.63"/>
<polygon fill="black" stroke="black" points="1613.17,-194.45 1623.32,-197.5 1617.29,-188.79 1613.17,-194.45"/>
</g>
<!-- 10999050384 -->
<g id="node9" class="node">
<title>10999050384</title>
<polygon fill="none" stroke="black" points="684,-287 630,-287 630,-251 684,-251 684,-287"/>
<text text-anchor="middle" x="657" y="-264.73" font-family="Times,serif" font-size="12.00">8</text>
</g>
<!-- 10999053136 -->
<g id="node29" class="node">
<title>10999053136</title>
<ellipse fill="none" stroke="black" cx="927" cy="-269" rx="27" ry="27"/>
</g>
<!-- 10999050384&#45;&gt;10999053136 -->
<g id="edge33" class="edge">
<title>10999050384&#45;&gt;10999053136</title>
<path fill="none" stroke="black" d="M684.18,-269C731.92,-269 833.23,-269 888.36,-269"/>
<polygon fill="black" stroke="black" points="888.2,-272.5 898.2,-269 888.2,-265.5 888.2,-272.5"/>
</g>
<!-- 10999051280 -->
<g id="node10" class="node">
<title>10999051280</title>
<polygon fill="none" stroke="black" points="2304,-259 2250,-259 2250,-223 2304,-223 2304,-259"/>
<text text-anchor="middle" x="2277" y="-236.72" font-family="Times,serif" font-size="12.00">END</text>
</g>
<!-- 10999074576 -->
<g id="node39" class="node">
<title>10999074576</title>
<ellipse fill="none" stroke="black" cx="2371" cy="-241" rx="27" ry="27"/>
<ellipse fill="none" stroke="black" cx="2371" cy="-241" rx="31" ry="31"/>
<text text-anchor="start" x="2361.25" y="-228.97" font-family="Times,serif" font-size="32.00">â– </text>
</g>
<!-- 10999051280&#45;&gt;10999074576 -->
<g id="edge37" class="edge">
<title>10999051280&#45;&gt;10999074576</title>
<path fill="none" stroke="black" d="M2304.12,-241C2311.63,-241 2320.01,-241 2328.22,-241"/>
<polygon fill="black" stroke="black" points="2328.08,-244.5 2338.08,-241 2328.08,-237.5 2328.08,-244.5"/>
</g>
<!-- 10999051088 -->
<g id="node11" class="node">
<title>10999051088</title>
<polygon fill="none" stroke="black" points="2124,-259 2070,-259 2070,-223 2124,-223 2124,-259"/>
<text text-anchor="middle" x="2097" y="-236.72" font-family="Times,serif" font-size="12.00">6</text>
</g>
<!-- 10999053648 -->
<g id="node31" class="node">
<title>10999053648</title>
<ellipse fill="none" stroke="black" cx="2187" cy="-241" rx="27" ry="27"/>
</g>
<!-- 10999051088&#45;&gt;10999053648 -->
<g id="edge36" class="edge">
<title>10999051088&#45;&gt;10999053648</title>
<path fill="none" stroke="black" d="M2124.4,-241C2131.89,-241 2140.18,-241 2148.2,-241"/>
<polygon fill="black" stroke="black" points="2148.1,-244.5 2158.1,-241 2148.1,-237.5 2148.1,-244.5"/>
</g>
<!-- 10999050832 -->
<g id="node12" class="node">
<title>10999050832</title>
<polygon fill="none" stroke="black" points="1944,-286 1890,-286 1890,-250 1944,-250 1944,-286"/>
<text text-anchor="middle" x="1917" y="-263.73" font-family="Times,serif" font-size="12.00">5</text>
</g>
<!-- 10999053392 -->
<g id="node30" class="node">
<title>10999053392</title>
<ellipse fill="none" stroke="black" cx="2007" cy="-241" rx="27" ry="27"/>
</g>
<!-- 10999050832&#45;&gt;10999053392 -->
<g id="edge35" class="edge">
<title>10999050832&#45;&gt;10999053392</title>
<path fill="none" stroke="black" d="M1944.4,-259.9C1952.43,-257.44 1961.39,-254.69 1969.94,-252.06"/>
<polygon fill="black" stroke="black" points="1970.84,-255.45 1979.38,-249.17 1968.79,-248.76 1970.84,-255.45"/>
</g>
<!-- 10999049936 -->
<g id="node13" class="node">
<title>10999049936</title>
<polygon fill="black" stroke="black" points="1224,-90 1170,-90 1170,-54 1224,-54 1224,-90"/>
</g>
<!-- 10998946064 -->
<g id="node27" class="node">
<title>10998946064</title>
<ellipse fill="none" stroke="black" cx="1287" cy="-72" rx="27" ry="27"/>
</g>
<!-- 10999049936&#45;&gt;10998946064 -->
<g id="edge31" class="edge">
<title>10999049936&#45;&gt;10998946064</title>
<path fill="none" stroke="black" d="M1224.4,-72C1231.89,-72 1240.18,-72 1248.2,-72"/>
<polygon fill="black" stroke="black" points="1248.1,-75.5 1258.1,-72 1248.1,-68.5 1248.1,-75.5"/>
</g>
<!-- 10999050192 -->
<g id="node14" class="node">
<title>10999050192</title>
<polygon fill="none" stroke="black" points="1224,-36 1170,-36 1170,0 1224,0 1224,-36"/>
<text text-anchor="middle" x="1197" y="-13.72" font-family="Times,serif" font-size="12.00">2</text>
</g>
<!-- 10999050192&#45;&gt;10998946064 -->
<g id="edge32" class="edge">
<title>10999050192&#45;&gt;10998946064</title>
<path fill="none" stroke="black" d="M1224.4,-34.2C1233.65,-39.87 1244.13,-46.31 1253.79,-52.24"/>
<polygon fill="black" stroke="black" points="1251.84,-55.14 1262.19,-57.39 1255.5,-49.18 1251.84,-55.14"/>
</g>
<!-- 10999053904 -->
<g id="node15" class="node">
<title>10999053904</title>
<polygon fill="none" stroke="black" points="144,-251 90,-251 90,-215 144,-215 144,-251"/>
<text text-anchor="middle" x="117" y="-228.72" font-family="Times,serif" font-size="12.00">START</text>
</g>
<!-- 10999071952 -->
<g id="node32" class="node">
<title>10999071952</title>
<ellipse fill="none" stroke="black" cx="207" cy="-233" rx="27" ry="27"/>
</g>
<!-- 10999053904&#45;&gt;10999071952 -->
<g id="edge13" class="edge">
<title>10999053904&#45;&gt;10999071952</title>
<path fill="none" stroke="black" d="M144.4,-233C151.89,-233 160.18,-233 168.2,-233"/>
<polygon fill="black" stroke="black" points="168.1,-236.5 178.1,-233 168.1,-229.5 168.1,-236.5"/>
</g>
<!-- 10999047248 -->
<g id="node16" class="node">
<title>10999047248</title>
<polygon fill="none" stroke="black" points="324,-224 270,-224 270,-188 324,-188 324,-224"/>
<text text-anchor="middle" x="297" y="-201.72" font-family="Times,serif" font-size="12.00">3</text>
</g>
<!-- 10999047248&#45;&gt;10999072464 -->
<g id="edge15" class="edge">
<title>10999047248&#45;&gt;10999072464</title>
<path fill="none" stroke="black" d="M324.4,-214.1C332.43,-216.56 341.39,-219.31 349.94,-221.94"/>
<polygon fill="black" stroke="black" points="348.79,-225.24 359.38,-224.83 350.84,-218.55 348.79,-225.24"/>
</g>
<!-- 10999048144 -->
<g id="node17" class="node">
<title>10999048144</title>
<polygon fill="black" stroke="black" points="864,-228 810,-228 810,-192 864,-192 864,-228"/>
</g>
<!-- 10998953424 -->
<g id="node38" class="node">
<title>10998953424</title>
<ellipse fill="none" stroke="black" cx="927" cy="-175" rx="27" ry="27"/>
</g>
<!-- 10999048144&#45;&gt;10998953424 -->
<g id="edge20" class="edge">
<title>10999048144&#45;&gt;10998953424</title>
<path fill="none" stroke="black" d="M864.4,-199.5C872.75,-196.18 882.12,-192.45 890.97,-188.93"/>
<polygon fill="black" stroke="black" points="892.02,-192.28 900.01,-185.33 889.43,-185.78 892.02,-192.28"/>
</g>
<!-- 10999048400 -->
<g id="node18" class="node">
<title>10999048400</title>
<polygon fill="none" stroke="black" points="864,-174 810,-174 810,-138 864,-138 864,-174"/>
<text text-anchor="middle" x="837" y="-151.72" font-family="Times,serif" font-size="12.00">7</text>
</g>
<!-- 10999048400&#45;&gt;10998953424 -->
<g id="edge21" class="edge">
<title>10999048400&#45;&gt;10998953424</title>
<path fill="none" stroke="black" d="M864.4,-161.7C872.2,-163.38 880.88,-165.26 889.2,-167.06"/>
<polygon fill="black" stroke="black" points="888.23,-170.43 898.74,-169.11 889.71,-163.58 888.23,-170.43"/>
</g>
<!-- 10999049296 -->
<g id="node19" class="node">
<title>10999049296</title>
<polygon fill="black" stroke="black" points="1224,-198 1170,-198 1170,-162 1224,-162 1224,-198"/>
</g>
<!-- 10998943056 -->
<g id="node25" class="node">
<title>10998943056</title>
<ellipse fill="none" stroke="black" cx="1287" cy="-150" rx="27" ry="27"/>
</g>
<!-- 10999049296&#45;&gt;10998943056 -->
<g id="edge28" class="edge">
<title>10999049296&#45;&gt;10998943056</title>
<path fill="none" stroke="black" d="M1224.4,-171C1232.59,-168.21 1241.75,-165.08 1250.45,-162.12"/>
<polygon fill="black" stroke="black" points="1251.35,-165.51 1259.69,-158.97 1249.1,-158.88 1251.35,-165.51"/>
</g>
<!-- 10999049552 -->
<g id="node20" class="node">
<title>10999049552</title>
<polygon fill="none" stroke="black" points="1224,-144 1170,-144 1170,-108 1224,-108 1224,-144"/>
<text text-anchor="middle" x="1197" y="-121.72" font-family="Times,serif" font-size="12.00">4</text>
</g>
<!-- 10999049552&#45;&gt;10998943056 -->
<g id="edge29" class="edge">
<title>10999049552&#45;&gt;10998943056</title>
<path fill="none" stroke="black" d="M1224.4,-133.2C1232.27,-135.35 1241.03,-137.74 1249.43,-140.03"/>
<polygon fill="black" stroke="black" points="1248.49,-143.4 1259.06,-142.65 1250.34,-136.65 1248.49,-143.4"/>
</g>
<!-- 10999050576 -->
<g id="node21" class="node">
<title>10999050576</title>
<polygon fill="black" stroke="black" points="1944,-232 1890,-232 1890,-196 1944,-196 1944,-232"/>
</g>
<!-- 10999050576&#45;&gt;10999053392 -->
<g id="edge34" class="edge">
<title>10999050576&#45;&gt;10999053392</title>
<path fill="none" stroke="black" d="M1944.4,-222.1C1952.43,-224.56 1961.39,-227.31 1969.94,-229.94"/>
<polygon fill="black" stroke="black" points="1968.79,-233.24 1979.38,-232.83 1970.84,-226.55 1968.79,-233.24"/>
</g>
<!-- 6438050192 -->
<g id="node22" class="node">
<title>6438050192</title>
<ellipse fill="none" stroke="black" cx="27" cy="-233" rx="27" ry="27"/>
<text text-anchor="start" x="16.88" y="-219.82" font-family="Times,serif" font-size="34.00">â—</text>
</g>
<!-- 6438050192&#45;&gt;10999053904 -->
<g id="edge1" class="edge">
<title>6438050192&#45;&gt;10999053904</title>
<path fill="none" stroke="black" d="M54.4,-233C61.89,-233 70.18,-233 78.2,-233"/>
<polygon fill="black" stroke="black" points="78.1,-236.5 88.1,-233 78.1,-229.5 78.1,-236.5"/>
</g>
<!-- 10998951120&#45;&gt;10999049296 -->
<g id="edge2" class="edge">
<title>10998951120&#45;&gt;10999049296</title>
<path fill="none" stroke="black" d="M1133.93,-169.42C1141.58,-170.72 1150.11,-172.18 1158.34,-173.58"/>
<polygon fill="black" stroke="black" points="1157.71,-177.02 1168.16,-175.25 1158.89,-170.12 1157.71,-177.02"/>
</g>
<!-- 10998951120&#45;&gt;10999049552 -->
<g id="edge3" class="edge">
<title>10998951120&#45;&gt;10999049552</title>
<path fill="none" stroke="black" d="M1132.05,-154.34C1140.39,-150.65 1149.94,-146.41 1159.07,-142.37"/>
<polygon fill="black" stroke="black" points="1160.4,-145.61 1168.12,-138.35 1157.56,-139.21 1160.4,-145.61"/>
</g>
<!-- 10998941776&#45;&gt;10999047184 -->
<g id="edge4" class="edge">
<title>10998941776&#45;&gt;10999047184</title>
<path fill="none" stroke="black" d="M1494.4,-150C1501.89,-150 1510.18,-150 1518.2,-150"/>
<polygon fill="black" stroke="black" points="1518.1,-153.5 1528.1,-150 1518.1,-146.5 1518.1,-153.5"/>
</g>
<!-- 10998943056&#45;&gt;10999049744 -->
<g id="edge5" class="edge">
<title>10998943056&#45;&gt;10999049744</title>
<path fill="none" stroke="black" d="M1314.4,-150C1321.89,-150 1330.18,-150 1338.2,-150"/>
<polygon fill="black" stroke="black" points="1338.1,-153.5 1348.1,-150 1338.1,-146.5 1338.1,-153.5"/>
</g>
<!-- 10998944336&#45;&gt;10999049936 -->
<g id="edge6" class="edge">
<title>10998944336&#45;&gt;10999049936</title>
<path fill="none" stroke="black" d="M1134.4,-72C1141.89,-72 1150.18,-72 1158.2,-72"/>
<polygon fill="black" stroke="black" points="1158.1,-75.5 1168.1,-72 1158.1,-68.5 1158.1,-75.5"/>
</g>
<!-- 10998944336&#45;&gt;10999050192 -->
<g id="edge7" class="edge">
<title>10998944336&#45;&gt;10999050192</title>
<path fill="none" stroke="black" d="M1130.66,-58.09C1139.6,-52.61 1150.09,-46.17 1160.01,-40.08"/>
<polygon fill="black" stroke="black" points="1161.69,-43.16 1168.38,-34.95 1158.03,-37.2 1161.69,-43.16"/>
</g>
<!-- 10998946064&#45;&gt;10999047184 -->
<g id="edge8" class="edge">
<title>10998946064&#45;&gt;10999047184</title>
<path fill="none" stroke="black" d="M1314.12,-74.58C1353.99,-79.11 1431.91,-90.38 1494,-114 1502.77,-117.34 1511.74,-121.83 1520.05,-126.5"/>
<polygon fill="black" stroke="black" points="1518.09,-129.41 1528.48,-131.47 1521.64,-123.38 1518.09,-129.41"/>
</g>
<!-- 10998944912&#45;&gt;10999050384 -->
<g id="edge9" class="edge">
<title>10998944912&#45;&gt;10999050384</title>
<path fill="none" stroke="black" d="M594.4,-269C601.89,-269 610.18,-269 618.2,-269"/>
<polygon fill="black" stroke="black" points="618.1,-272.5 628.1,-269 618.1,-265.5 618.1,-272.5"/>
</g>
<!-- 10999053136&#45;&gt;10999047696 -->
<g id="edge10" class="edge">
<title>10999053136&#45;&gt;10999047696</title>
<path fill="none" stroke="black" d="M954.24,-269C988.96,-269 1052.07,-269 1106,-269 1106,-269 1106,-269 1558,-269 1607.12,-269 1662.94,-258.47 1698.77,-250.32"/>
<polygon fill="black" stroke="black" points="1699.25,-253.8 1708.19,-248.12 1697.66,-246.99 1699.25,-253.8"/>
</g>
<!-- 10999053392&#45;&gt;10999051088 -->
<g id="edge11" class="edge">
<title>10999053392&#45;&gt;10999051088</title>
<path fill="none" stroke="black" d="M2034.4,-241C2041.89,-241 2050.18,-241 2058.2,-241"/>
<polygon fill="black" stroke="black" points="2058.1,-244.5 2068.1,-241 2058.1,-237.5 2058.1,-244.5"/>
</g>
<!-- 10999053648&#45;&gt;10999051280 -->
<g id="edge12" class="edge">
<title>10999053648&#45;&gt;10999051280</title>
<path fill="none" stroke="black" d="M2214.4,-241C2221.89,-241 2230.18,-241 2238.2,-241"/>
<polygon fill="black" stroke="black" points="2238.1,-244.5 2248.1,-241 2238.1,-237.5 2238.1,-244.5"/>
</g>
<!-- 10999071952&#45;&gt;10999054096 -->
<g id="edge26" class="edge">
<title>10999071952&#45;&gt;10999054096</title>
<path fill="none" stroke="black" d="M232.98,-240.66C241.06,-243.14 250.19,-245.94 258.95,-248.63"/>
<polygon fill="black" stroke="black" points="257.69,-251.91 268.28,-251.5 259.75,-245.22 257.69,-251.91"/>
</g>
<!-- 10999071952&#45;&gt;10999047248 -->
<g id="edge27" class="edge">
<title>10999071952&#45;&gt;10999047248</title>
<path fill="none" stroke="black" d="M232.98,-225.34C241.06,-222.86 250.19,-220.06 258.95,-217.37"/>
<polygon fill="black" stroke="black" points="259.75,-220.78 268.28,-214.5 257.69,-214.09 259.75,-220.78"/>
</g>
<!-- 10999072464&#45;&gt;10999047440 -->
<g id="edge38" class="edge">
<title>10999072464&#45;&gt;10999047440</title>
<path fill="none" stroke="black" d="M414.4,-233C421.89,-233 430.18,-233 438.2,-233"/>
<polygon fill="black" stroke="black" points="438.1,-236.5 448.1,-233 438.1,-229.5 438.1,-236.5"/>
</g>
<!-- 10999083664&#45;&gt;10999050832 -->
<g id="edge40" class="edge">
<title>10999083664&#45;&gt;10999050832</title>
<path fill="none" stroke="black" d="M1852.98,-248.66C1861.06,-251.14 1870.19,-253.94 1878.95,-256.63"/>
<polygon fill="black" stroke="black" points="1877.69,-259.91 1888.28,-259.5 1879.75,-253.22 1877.69,-259.91"/>
</g>
<!-- 10999083664&#45;&gt;10999050576 -->
<g id="edge39" class="edge">
<title>10999083664&#45;&gt;10999050576</title>
<path fill="none" stroke="black" d="M1852.98,-233.34C1861.06,-230.86 1870.19,-228.06 1878.95,-225.37"/>
<polygon fill="black" stroke="black" points="1879.75,-228.78 1888.28,-222.5 1877.69,-222.09 1879.75,-228.78"/>
</g>
<!-- 10999073040&#45;&gt;10999047952 -->
<g id="edge41" class="edge">
<title>10999073040&#45;&gt;10999047952</title>
<path fill="none" stroke="black" d="M594.4,-197C601.89,-197 610.18,-197 618.2,-197"/>
<polygon fill="black" stroke="black" points="618.1,-200.5 628.1,-197 618.1,-193.5 618.1,-200.5"/>
</g>
<!-- 10999073168&#45;&gt;10999047696 -->
<g id="edge42" class="edge">
<title>10999073168&#45;&gt;10999047696</title>
<path fill="none" stroke="black" d="M1672.98,-221.66C1681.06,-224.14 1690.19,-226.94 1698.95,-229.63"/>
<polygon fill="black" stroke="black" points="1697.69,-232.91 1708.28,-232.5 1699.75,-226.22 1697.69,-232.91"/>
</g>
<!-- 10999073424&#45;&gt;10999048144 -->
<g id="edge43" class="edge">
<title>10999073424&#45;&gt;10999048144</title>
<path fill="none" stroke="black" d="M773.93,-200.83C781.58,-201.96 790.11,-203.22 798.34,-204.44"/>
<polygon fill="black" stroke="black" points="797.75,-207.89 808.15,-205.89 798.77,-200.96 797.75,-207.89"/>
</g>
<!-- 10999073424&#45;&gt;10999048400 -->
<g id="edge44" class="edge">
<title>10999073424&#45;&gt;10999048400</title>
<path fill="none" stroke="black" d="M772.05,-185.8C780.39,-181.91 789.94,-177.46 799.07,-173.2"/>
<polygon fill="black" stroke="black" points="800.55,-176.38 808.14,-168.98 797.59,-170.03 800.55,-176.38"/>
</g>
<!-- 10998953424&#45;&gt;10999048592 -->
<g id="edge45" class="edge">
<title>10998953424&#45;&gt;10999048592</title>
<path fill="none" stroke="black" d="M951.85,-186.45C985.43,-201.48 1048.94,-226 1106,-226 1106,-226 1106,-226 1198,-226 1246.47,-226 1302.33,-224.12 1338.35,-222.67"/>
<polygon fill="black" stroke="black" points="1338.41,-226.17 1348.26,-222.26 1338.12,-219.18 1338.41,-226.17"/>
</g>
<!-- 10998953424&#45;&gt;10999048848 -->
<g id="edge46" class="edge">
<title>10998953424&#45;&gt;10999048848</title>
<path fill="none" stroke="black" d="M953.93,-172.05C961.58,-171.18 970.11,-170.21 978.34,-169.28"/>
<polygon fill="black" stroke="black" points="978.6,-172.77 988.15,-168.17 977.81,-165.82 978.6,-172.77"/>
</g>
</g>
</svg>
